<svg id="Layer_1" enable-background="new 0 0 64 64" height="512" viewBox="0 0 64 64" width="512" xmlns="http://www.w3.org/2000/svg"><g fill="#5b627c">
<path d="m28 14h-2v-4.2c0-.3-.1-.5-.3-.7l-2.4-2.4 1.4-1.4 2.4 2.4c.6.6.9 1.3.9 2.1z"/><path d="m19 17h-2v-5.2c0-.3-.1-.5-.3-.7l-4.4-4.4 1.4-1.4 4.4 4.4c.6.6.9 1.3.9 2.1z"/><path d="m6 31h11v2h-11z"/><path d="m6.7 47.7-1.4-1.4 5.4-5.4c.6-.6 1.3-.9 2.1-.9h6.2v2h-6.2c-.3 0-.5.1-.7.3z"/><path d="m31 50h2v8h-2z"/><path d="m48 56h-2v-4.2c0-.3-.1-.5-.3-.7l-5.4-5.4 1.4-1.4 5.4 5.4c.6.6.9 1.3.9 2.1z"/><path d="m53.2 30h-5.2v-2h5.2c.3 0 .5-.1.7-.3l3.4-3.4 1.4 1.4-3.4 3.4c-.6.6-1.3.9-2.1.9z"/><path d="m18 56h-2v-3.2c0-.8.3-1.6.9-2.1l5.4-5.4 1.4 1.4-5.4 5.4c-.2.2-.3.4-.3.7z"/><path d="m16.3 26.7-6.4-6.4c-.2-.2-.5-.3-.7-.3h-3.2v-2h3.2c.8 0 1.6.3 2.1.9l6.4 6.4z"/><path d="m47.7 24.7-1.4-1.4 7.4-7.4c.2-.2.3-.4.3-.7v-9.2h2v9.2c0 .8-.3 1.6-.9 2.1z"/><path d="m57.3 43.7-4.4-4.4c-.2-.2-.4-.3-.7-.3h-6.2v-2h6.2c.8 0 1.6.3 2.1.9l4.4 4.4z"/><path d="m38 14h-2v-4.2c0-.8.3-1.6.9-2.1l2.4-2.4 1.4 1.4-2.4 2.4c-.2.2-.3.5-.3.7z"/></g><circle cx="23" cy="5" fill="rgb(35, 125, 224)" r="2"/><circle cx="12" cy="5" fill="rgb(35, 125, 224)" r="2"/><circle cx="41" cy="5" fill="rgb(35, 125, 224)" r="2"/><circle cx="55" cy="5" fill="rgb(35, 125, 224)" r="2"/><circle cx="5" cy="19" fill="rgb(35, 125, 224)" r="2"/><circle cx="5" cy="32" fill="rgb(35, 125, 224)" r="2"/><circle cx="5" cy="48" fill="rgb(35, 125, 224)" r="2"/><circle cx="17" cy="57" fill="rgb(35, 125, 224)" r="2"/><circle cx="32" cy="59" fill="rgb(35, 125, 224)" r="2"/><circle cx="59" cy="24" fill="rgb(35, 125, 224)" r="2"/><circle cx="47" cy="57" fill="rgb(35, 125, 224)" r="2"/><circle cx="59" cy="44" fill="rgb(35, 125, 224)" r="2"/><path d="m32 11 16 5.6v14.6c0 6.4-3.1 12.4-8.2 16.2l-7.8 5.6-7.8-5.7c-5.2-3.8-8.2-9.8-8.2-16.2v-14.5z" fill="rgb(35, 125, 224)"/><path d="m27 20h2v3h-2z" fill="#e0af00"/><path d="m31 20h2v3h-2z" fill="#e0af00"/><path d="m35 20h2v3h-2z" fill="#e0af00"/><path d="m27 39h2v3h-2z" fill="#e0af00"/><path d="m31 39h2v3h-2z" fill="#e0af00"/><path d="m35 39h2v3h-2z" fill="#e0af00"/><path d="m40 26h3v2h-3z" fill="#e0af00"/><path d="m40 30h3v2h-3z" fill="#e0af00"/><path d="m40 34h3v2h-3z" fill="#e0af00"/><path d="m21 26h3v2h-3z" fill="#e0af00"/><path d="m21 30h3v2h-3z" fill="#e0af00"/><path d="m21 34h3v2h-3z" fill="#e0af00"/><path d="m26 23h12c1.1 0 2 .9 2 2v12c0 1.1-.9 2-2 2h-12c-1.1 0-2-.9-2-2v-12c0-1.1.9-2 2-2z" fill="#ffc700"/><path d="m29 28h6v6h-6z" fill="#e0af00"/><path d="m23 37c0 1.7 1.3 3 3 3h1v2h2v-2h2v2h2v-2h2v2h2v-2h1c1.7 0 3-1.3 3-3v-1h2v-2h-2v-2h2v-2h-2v-2h2v-2h-2v-1c0-1.7-1.3-3-3-3h-1v-2h-2v2h-2v-2h-2v2h-2v-2h-2v2h-1c-1.7 0-3 1.3-3 3v1h-2v2h2v2h-2v2h2v2h-2v2h2zm2-12c0-.6.4-1 1-1h12c.6 0 1 .4 1 1v12c0 .6-.4 1-1 1h-12c-.6 0-1-.4-1-1z"/>
<path d="m36 27h-8v8h8zm-2 6h-4v-4h4z"/><path d="m10.7 40.9-4.4 4.4c-.4-.2-.9-.3-1.3-.3-1.7 0-3 1.3-3 3s1.3 3 3 3 3-1.3 3-3c0-.4-.1-.9-.3-1.3l4.4-4.4c.2-.2.4-.3.7-.3h5.2c.9 1.5 2.1 3 3.3 4.2l-4.5 4.5c-.5.6-.8 1.3-.8 2.1v1.4c-1.6.6-2.4 2.3-1.8 3.8.6 1.6 2.3 2.4 3.8 1.8 1.6-.6 2.4-2.3 1.8-3.8-.3-.9-1-1.5-1.8-1.8v-1.4c0-.3.1-.5.3-.7l4.6-4.6c.2.2.5.4.8.6l7.4 5.4v2.7c-1.6.6-2.4 2.3-1.8 3.8.6 1.6 2.3 2.4 3.8 1.8 1.6-.6 2.4-2.3 1.8-3.8-.3-.9-1-1.5-1.8-1.8v-2.7l7.4-5.4c.5-.3.9-.7 1.3-1l4 4c.2.2.3.4.3.7v2.4c-1.6.6-2.4 2.3-1.8 3.8.6 1.6 2.3 2.4 3.8 1.8 1.6-.6 2.4-2.3 1.8-3.8-.3-.9-1-1.5-1.8-1.8v-2.4c0-.8-.3-1.6-.9-2.1l-4-4c1.9-1.9 3.3-4.2 4.3-6.7h4.7c.3 0 .5.1.7.3l3.4 3.4c-.2.4-.3.9-.3 1.3 0 1.7 1.3 3 3 3s3-1.3 3-3-1.3-3-3-3c-.4 0-.9.1-1.3.3l-3.4-3.4c-.6-.6-1.3-.9-2.1-.9h-4c.6-1.9.8-3.9.8-5.8v-1.2h4.2c.8 0 1.6-.3 2.1-.9l2.4-2.4c.4.2.8.3 1.3.3 1.7 0 3-1.3 3-3s-1.3-3-3-3-3 1.3-3 3c0 .4.1.9.3 1.3l-2.4 2.4c-.2.2-.4.3-.7.3h-4.2v-4.6l6.1-6.1c.6-.6.9-1.3.9-2.1v-7.4c1.6-.6 2.4-2.3 1.8-3.8s-2.2-2.4-3.8-1.8-2.4 2.3-1.8 3.8c.3.9 1 1.5 1.8 1.8v7.4c0 .3-.1.5-.3.7l-4.7 4.7v-4.7l-11-3.9v-2.2c0-.3.1-.5.3-.7l1.4-1.4c.4.2.9.3 1.3.3 1.7 0 3-1.3 3-3s-1.3-3-3-3-3 1.3-3 3c0 .4.1.9.3 1.3l-1.4 1.4c-.6.6-.9 1.3-.9 2.1v1.5l-4-1.4-4 1.4v-1.5c0-.8-.3-1.6-.9-2.1l-1.4-1.4c.2-.4.3-.9.3-1.3 0-1.7-1.3-3-3-3s-3 1.3-3 3 1.3 3 3 3c.4 0 .9-.1 1.3-.3l1.4 1.4c.2.2.3.5.3.7v2.2l-7 2.5v-2.7c0-.8-.3-1.6-.9-2.1l-3.4-3.4c.2-.4.3-.9.3-1.3 0-1.7-1.3-3-3-3s-3 1.3-3 3 1.3 3 3 3c.4 0 .9-.1 1.3-.3l3.4 3.4c.2.2.3.4.3.7v3.4l-2 .7v6.7l-3.7-3.7c-.6-.6-1.3-.9-2.1-.9h-1.4c-.6-1.6-2.3-2.4-3.8-1.8-1.6.6-2.4 2.3-1.8 3.8s2.3 2.4 3.8 1.8c.9-.3 1.5-1 1.8-1.8h1.4c.3 0 .5.1.7.3l5.1 5.1v5.6h-7.2c-.6-1.6-2.3-2.4-3.8-1.8-1.6.6-2.4 2.3-1.8 3.8.6 1.6 2.3 2.4 3.8 1.8.9-.3 1.5-1 1.8-1.8h7.3c.2 2.4.9 4.8 1.9 7h-4.1c-.9 0-1.6.3-2.2.9zm-5.7 8.1c-.6 0-1-.4-1-1s.4-1 1-1 1 .4 1 1-.4 1-1 1zm12 9c-.6 0-1-.4-1-1s.4-1 1-1 1 .4 1 1-.4 1-1 1zm30-2c.6 0 1 .4 1 1s-.4 1-1 1-1-.4-1-1 .4-1 1-1zm12-13c.6 0 1 .4 1 1s-.4 1-1 1-1-.4-1-1 .4-1 1-1zm0-20c.6 0 1 .4 1 1s-.4 1-1 1-1-.4-1-1 .4-1 1-1zm-4-19c.6 0 1 .4 1 1s-.4 1-1 1-1-.4-1-1 .4-1 1-1zm-14 0c.6 0 1 .4 1 1s-.4 1-1 1-1-.4-1-1 .4-1 1-1zm-18 2c-.6 0-1-.4-1-1s.4-1 1-1 1 .4 1 1-.4 1-1 1zm-11 0c-.6 0-1-.4-1-1s.4-1 1-1 1 .4 1 1-.4 1-1 1zm-7 14c-.6 0-1-.4-1-1s.4-1 1-1 1 .4 1 1-.4 1-1 1zm0 13c-.6 0-1-.4-1-1s.4-1 1-1 1 .4 1 1-.4 1-1 1zm27 27c-.6 0-1-.4-1-1s.4-1 1-1 1 .4 1 1-.4 1-1 1zm-15-42.7 15-5.2 15 5.2v13.9c0 2-.3 4-.9 5.8h-.1v.2c-1.3 3.7-3.6 7-6.8 9.3l-7.2 5.3-7.2-5.2c-4.9-3.6-7.8-9.3-7.8-15.4z"/></svg>